<svg width="23" height="19" viewBox="0 0 23 19" fill="none" xmlns="http://www.w3.org/2000/svg">
<path d="M20.0448 16.7031H22.0493V18.7031H0V16.7031H2.00448V1.70312C2.00448 1.43791 2.11007 1.18355 2.29803 0.996018C2.48599 0.808482 2.74091 0.703125 3.00672 0.703125H13.0291C13.2949 0.703125 13.5499 0.808482 13.7378 0.996018C13.9258 1.18355 14.0314 1.43791 14.0314 1.70312V16.7031H18.0403V8.70312H16.0358V6.70312H19.0426C19.3084 6.70312 19.5633 6.80848 19.7513 6.99602C19.9392 7.18355 20.0448 7.43791 20.0448 7.70312V16.7031ZM4.00896 2.70312V16.7031H12.0269V2.70312H4.00896ZM6.01344 8.70312H10.0224V10.7031H6.01344V8.70312ZM6.01344 4.70312H10.0224V6.70312H6.01344V4.70312Z" fill="white"/>
</svg>
