<svg width="21" height="21" viewBox="0 0 21 21" fill="none" xmlns="http://www.w3.org/2000/svg">
<path d="M0.243544 6.5576L9.51126 1.0136C9.66703 0.920352 9.84526 0.871094 10.0269 0.871094C10.2086 0.871094 10.3868 0.920352 10.5426 1.0136L19.8013 6.5586C19.8756 6.60302 19.937 6.66588 19.9797 6.74107C20.0224 6.81626 20.0448 6.90119 20.0448 6.9876V19.7036C20.0448 19.9688 19.9392 20.2232 19.7513 20.4107C19.5633 20.5982 19.3084 20.7036 19.0426 20.7036H1.00224C0.73643 20.7036 0.481506 20.5982 0.293549 20.4107C0.105593 20.2232 1.10319e-08 19.9688 1.10319e-08 19.7036V6.9866C-1.81585e-05 6.90019 0.0224079 6.81526 0.065091 6.74007C0.107774 6.66488 0.169257 6.60202 0.243544 6.5576ZM2.00448 7.8366V18.7036H18.0403V7.8356L10.0264 3.0356L2.00448 7.8356V7.8366ZM10.0825 13.4016L15.3904 8.9386L16.6813 10.4686L10.0966 16.0056L3.37154 10.4756L4.64639 8.9316L10.0825 13.4016Z" fill="white"/>
</svg>
