<svg width="21" height="20" viewBox="0 0 21 20" fill="none" xmlns="http://www.w3.org/2000/svg">
<path d="M10.0224 2.70312C7.89592 2.70312 5.85653 3.54598 4.35288 5.04627C2.84922 6.54656 2.00448 8.58139 2.00448 10.7031H5.0112C5.54282 10.7031 6.05267 10.9138 6.42858 11.2889C6.8045 11.664 7.01568 12.1727 7.01568 12.7031V17.7031C7.01568 18.2336 6.8045 18.7423 6.42858 19.1173C6.05267 19.4924 5.54282 19.7031 5.0112 19.7031H2.00448C1.47286 19.7031 0.963012 19.4924 0.587099 19.1173C0.211186 18.7423 0 18.2336 0 17.7031V10.7031C0 5.18013 4.48703 0.703125 10.0224 0.703125C15.5578 0.703125 20.0448 5.18013 20.0448 10.7031V17.7031C20.0448 18.2336 19.8336 18.7423 19.4577 19.1173C19.0818 19.4924 18.5719 19.7031 18.0403 19.7031H15.0336C14.502 19.7031 13.9921 19.4924 13.6162 19.1173C13.2403 18.7423 13.0291 18.2336 13.0291 17.7031V12.7031C13.0291 12.1727 13.2403 11.664 13.6162 11.2889C13.9921 10.9138 14.502 10.7031 15.0336 10.7031H18.0403C18.0403 8.58139 17.1956 6.54656 15.6919 5.04627C14.1883 3.54598 12.1489 2.70312 10.0224 2.70312ZM2.00448 12.7031V17.7031H5.0112V12.7031H2.00448ZM15.0336 12.7031V17.7031H18.0403V12.7031H15.0336Z" fill="white"/>
</svg>
